<svg xmlns="http://www.w3.org/2000/svg" viewBox="0 0 128 128">
  <defs>
    <linearGradient id="spark" x1="0%" y1="0%" x2="100%" y2="100%">
      <stop offset="0%" style="stop-color:#a78bfa"/>
      <stop offset="100%" style="stop-color:#7c3aed"/>
    </linearGradient>
  </defs>
  <!-- Pacifico-style "J" as path -->
  <path d="M72 18c0 0 4-1 5 2s0 6 0 6l-2 52c0 8-1 16-5 22s-12 12-22 14c-10 2-18-1-22-6s-4-12-2-17c2-4 6-7 10-7 5 0 8 3 9 7s-1 8-4 10c-2 1-4 1-5 0s-1-3 0-4c2-2 4-1 4-1s1-2-1-4c-3-2-7 0-9 4-2 5 0 10 4 13s10 3 16 1c6-3 10-8 12-16 1-5 2-12 2-18L60 20c0 0-1-4 2-5s6 0 6 0"
    fill="#1a1a2e" stroke="none"/>
  <!-- AI sparkle (top right) -->
  <g transform="translate(100, 28)">
    <path d="M0,-14 C2.5,-5 5,-2.5 14,0 C5,2.5 2.5,5 0,14 C-2.5,5 -5,2.5 -14,0 C-5,-2.5 -2.5,-5 0,-14Z" fill="url(#spark)"/>
  </g>
  <!-- Small sparkle -->
  <g transform="translate(90, 56)">
    <path d="M0,-7 C1.2,-2.3 2.3,-1.2 7,0 C2.3,1.2 1.2,2.3 0,7 C-1.2,2.3 -2.3,1.2 -7,0 C-2.3,-1.2 -1.2,-2.3 0,-7Z" fill="#a78bfa" opacity="0.7"/>
  </g>
  <!-- Tiny sparkle -->
  <g transform="translate(104, 50)">
    <path d="M0,-4 C0.7,-1.3 1.3,-0.7 4,0 C1.3,0.7 0.7,1.3 0,4 C-0.7,1.3 -1.3,0.7 -4,0 C-1.3,-0.7 -0.7,-1.3 0,-4Z" fill="#c4b5fd" opacity="0.5"/>
  </g>
</svg>
